@startuml
'https://plantuml.com/class-diagram
'https://plantuml.com/zh/class-diagram

interface i1{
void operation1();
}

interface i2{
void operation2();
void operation3();
}

interface i3{
void operation4();
void operation5();
}
class A{}

class B{}

class C{}

class D{}

D <|-- i1
D <|-- i2

C <|-- i1
C <|-- i3

B <|-- i1
B <|-- i2
B <|-- i3

A <|-- i1
A <|-- i2
A <|-- i3

@enduml