@startuml
'https://plantuml.com/class-diagram
'https://plantuml.com/zh/class-diagram

interface i1{
void operation1();
void operation2();
void operation3();
void operation4();
void operation5();
}

class A{}

class B{}

class C{}

class D{}

D <|-- i1
C <|-- i1
B <|-- i1
A <|-- i1



'List <|-- AbstractList
'Collection <|-- AbstractCollection
'
'Collection <|- List
'AbstractCollection <|- AbstractList
'AbstractList <|-- ArrayList
'
'class ArrayList {
'Object[] elementData
'size()
'}


@enduml